<svg width="297" height="28" viewBox="0 0 297 28" fill="none" xmlns="http://www.w3.org/2000/svg">
<path d="M1.5313 1.8H11.5033C14.1193 1.8 16.4353 2.34 18.4513 3.42C20.4913 4.5 22.0753 6 23.2033 7.92C24.3313 9.816 24.8953 11.976 24.8953 14.4C24.8953 16.824 24.3313 18.996 23.2033 20.916C22.0753 22.812 20.4913 24.3 18.4513 25.38C16.4353 26.46 14.1193 27 11.5033 27H1.5313V1.8ZM11.3593 25.344C13.6873 25.344 15.7393 24.888 17.5153 23.976C19.2913 23.04 20.6593 21.744 21.6193 20.088C22.5793 18.432 23.0593 16.536 23.0593 14.4C23.0593 12.264 22.5793 10.368 21.6193 8.712C20.6593 7.056 19.2913 5.772 17.5153 4.86C15.7393 3.924 13.6873 3.456 11.3593 3.456H3.3673V25.344H11.3593ZM60.5499 19.908H45.9339L42.7299 27H40.7499L52.3419 1.8H54.1779L65.7699 27H63.7899L60.5499 19.908ZM59.8659 18.36L53.2419 3.816L46.6539 18.36H59.8659ZM90.6842 18.324V27H88.8482V18.324L78.6962 1.8H80.7122L89.8202 16.632L98.9282 1.8H100.836L90.6842 18.324ZM133.827 14.004C135.627 14.34 136.995 15.048 137.931 16.128C138.891 17.208 139.371 18.612 139.371 20.34C139.371 22.476 138.591 24.12 137.031 25.272C135.471 26.424 133.155 27 130.083 27H118.851V1.8H129.363C132.099 1.8 134.223 2.364 135.735 3.492C137.271 4.596 138.039 6.18 138.039 8.244C138.039 9.684 137.655 10.896 136.887 11.88C136.143 12.864 135.123 13.572 133.827 14.004ZM120.687 3.384V13.428H129.291C131.499 13.428 133.191 13.008 134.367 12.168C135.567 11.304 136.167 10.044 136.167 8.388C136.167 6.756 135.567 5.52 134.367 4.68C133.191 3.816 131.499 3.384 129.291 3.384H120.687ZM130.083 25.416C132.531 25.416 134.379 24.996 135.627 24.156C136.899 23.292 137.535 21.972 137.535 20.196C137.535 18.42 136.899 17.112 135.627 16.272C134.379 15.432 132.531 15.012 130.083 15.012H120.687V25.416H130.083ZM167.209 18.324V27H165.373V18.324L155.221 1.8H157.237L166.345 16.632L175.453 1.8H177.361L167.209 18.324ZM195.376 1.8H205.348C207.964 1.8 210.28 2.34 212.296 3.42C214.336 4.5 215.92 6 217.048 7.92C218.176 9.816 218.74 11.976 218.74 14.4C218.74 16.824 218.176 18.996 217.048 20.916C215.92 22.812 214.336 24.3 212.296 25.38C210.28 26.46 207.964 27 205.348 27H195.376V1.8ZM205.204 25.344C207.532 25.344 209.584 24.888 211.36 23.976C213.136 23.04 214.504 21.744 215.464 20.088C216.424 18.432 216.904 16.536 216.904 14.4C216.904 12.264 216.424 10.368 215.464 8.712C214.504 7.056 213.136 5.772 211.36 4.86C209.584 3.924 207.532 3.456 205.204 3.456H197.212V25.344H205.204ZM254.394 19.908H239.778L236.574 27H234.594L246.186 1.8H248.022L259.614 27H257.634L254.394 19.908ZM253.71 18.36L247.086 3.816L240.498 18.36H253.71ZM284.529 18.324V27H282.693V18.324L272.541 1.8H274.557L283.665 16.632L292.773 1.8H294.681L284.529 18.324Z" fill="#3C3C3C"/>
<path d="M1.5313 1.8V0.799999H0.531298V1.8H1.5313ZM18.4513 3.42L17.9791 4.30149L17.9834 4.30379L18.4513 3.42ZM23.2033 7.92L22.3411 8.42656L22.3439 8.43129L23.2033 7.92ZM23.2033 20.916L24.0627 21.4273L24.0655 21.4225L23.2033 20.916ZM18.4513 25.38L17.9834 24.4962L17.9791 24.4985L18.4513 25.38ZM1.5313 27H0.531298V28H1.5313V27ZM17.5153 23.976L17.9721 24.8656L17.9815 24.8607L17.5153 23.976ZM21.6193 20.088L20.7542 19.5865V19.5865L21.6193 20.088ZM21.6193 8.712L20.7542 9.21353V9.21353L21.6193 8.712ZM17.5153 4.86L17.049 5.74471L17.0585 5.74957L17.5153 4.86ZM3.3673 3.456V2.456H2.3673V3.456H3.3673ZM3.3673 25.344H2.3673V26.344H3.3673V25.344ZM1.5313 2.8H11.5033V0.799999H1.5313V2.8ZM11.5033 2.8C13.9785 2.8 16.128 3.30985 17.9791 4.30148L18.9235 2.53852C16.7426 1.37015 14.2601 0.799999 11.5033 0.799999V2.8ZM17.9834 4.30379C19.8658 5.30036 21.3106 6.67245 22.3411 8.42655L24.0655 7.41345C22.84 5.32755 21.1168 3.69964 18.9192 2.53621L17.9834 4.30379ZM22.3439 8.43129C23.3709 10.1576 23.8953 12.1377 23.8953 14.4H25.8953C25.8953 11.8143 25.2917 9.47439 24.0627 7.40871L22.3439 8.43129ZM23.8953 14.4C23.8953 16.6622 23.371 18.6565 22.3411 20.4094L24.0655 21.4225C25.2916 19.3355 25.8953 16.9858 25.8953 14.4H23.8953ZM22.3439 20.4047C21.3142 22.1355 19.869 23.4979 17.9834 24.4962L18.9192 26.2638C21.1136 25.1021 22.8364 23.4885 24.0627 21.4273L22.3439 20.4047ZM17.9791 24.4985C16.128 25.4902 13.9785 26 11.5033 26V28C14.2601 28 16.7426 27.4298 18.9235 26.2615L17.9791 24.4985ZM11.5033 26H1.5313V28H11.5033V26ZM2.5313 27V1.8H0.531298V27H2.5313ZM11.3593 26.344C13.8198 26.344 16.033 25.8613 17.9721 24.8656L17.0585 23.0864C15.4456 23.9147 13.5548 24.344 11.3593 24.344V26.344ZM17.9815 24.8607C19.9154 23.8415 21.4254 22.4163 22.4844 20.5895L20.7542 19.5865C19.8932 21.0717 18.6672 22.2385 17.0491 23.0913L17.9815 24.8607ZM22.4844 20.5895C23.5427 18.764 24.0593 16.6912 24.0593 14.4H22.0593C22.0593 16.3808 21.6159 18.1 20.7542 19.5865L22.4844 20.5895ZM24.0593 14.4C24.0593 12.1088 23.5427 10.036 22.4844 8.21047L20.7542 9.21353C21.6159 10.7 22.0593 12.4192 22.0593 14.4H24.0593ZM22.4844 8.21047C21.4241 6.38132 19.9109 4.96601 17.9721 3.97043L17.0585 5.74957C18.6717 6.57798 19.8945 7.73068 20.7542 9.21353L22.4844 8.21047ZM17.9815 3.97534C16.0404 2.95231 13.8237 2.456 11.3593 2.456V4.456C13.5509 4.456 15.4382 4.89568 17.0491 5.74466L17.9815 3.97534ZM11.3593 2.456H3.3673V4.456H11.3593V2.456ZM2.3673 3.456V25.344H4.3673V3.456H2.3673ZM3.3673 26.344H11.3593V24.344H3.3673V26.344ZM60.5499 19.908L61.4595 19.4925L61.1925 18.908H60.5499V19.908ZM45.9339 19.908V18.908H45.2884L45.0226 19.4963L45.9339 19.908ZM42.7299 27V28H43.3755L43.6412 27.4117L42.7299 27ZM40.7499 27L39.8414 26.5821L39.1892 28H40.7499V27ZM52.3419 1.8V0.799999H51.7012L51.4334 1.38209L52.3419 1.8ZM54.1779 1.8L55.0864 1.38209L54.8186 0.799999H54.1779V1.8ZM65.7699 27V28H67.3307L66.6784 26.5821L65.7699 27ZM63.7899 27L62.8803 27.4155L63.1474 28H63.7899V27ZM59.8659 18.36V19.36H61.4202L60.776 17.9455L59.8659 18.36ZM53.2419 3.816L54.152 3.40152L53.2394 1.3979L52.331 3.40339L53.2419 3.816ZM46.6539 18.36L45.743 17.9474L45.1031 19.36H46.6539V18.36ZM60.5499 18.908H45.9339V20.908H60.5499V18.908ZM45.0226 19.4963L41.8186 26.5883L43.6412 27.4117L46.8452 20.3197L45.0226 19.4963ZM42.7299 26H40.7499V28H42.7299V26ZM41.6584 27.4179L53.2504 2.2179L51.4334 1.38209L39.8414 26.5821L41.6584 27.4179ZM52.3419 2.8H54.1779V0.799999H52.3419V2.8ZM53.2694 2.2179L64.8614 27.4179L66.6784 26.5821L55.0864 1.38209L53.2694 2.2179ZM65.7699 26H63.7899V28H65.7699V26ZM64.6995 26.5845L61.4595 19.4925L59.6404 20.3235L62.8803 27.4155L64.6995 26.5845ZM60.776 17.9455L54.152 3.40152L52.3319 4.23048L58.9559 18.7745L60.776 17.9455ZM52.331 3.40339L45.743 17.9474L47.5648 18.7726L54.1528 4.22861L52.331 3.40339ZM46.6539 19.36H59.8659V17.36H46.6539V19.36ZM90.6842 18.324L89.8321 17.8005L89.6842 18.0414V18.324H90.6842ZM90.6842 27V28H91.6842V27H90.6842ZM88.8482 27H87.8482V28H88.8482V27ZM88.8482 18.324H89.8482V18.0414L89.7002 17.8005L88.8482 18.324ZM78.6962 1.8V0.799999H76.9081L77.8441 2.32347L78.6962 1.8ZM80.7122 1.8L81.5643 1.27671L81.2716 0.799999H80.7122V1.8ZM89.8202 16.632L88.968 17.1553L89.8202 18.543L90.6723 17.1553L89.8202 16.632ZM98.9282 1.8V0.799999H98.3688L98.076 1.27671L98.9282 1.8ZM100.836 1.8L101.688 2.32347L102.624 0.799999H100.836V1.8ZM89.6842 18.324V27H91.6842V18.324H89.6842ZM90.6842 26H88.8482V28H90.6842V26ZM89.8482 27V18.324H87.8482V27H89.8482ZM89.7002 17.8005L79.5482 1.27652L77.8441 2.32347L87.9961 18.8475L89.7002 17.8005ZM78.6962 2.8H80.7122V0.799999H78.6962V2.8ZM79.86 2.32329L88.968 17.1553L90.6723 16.1087L81.5643 1.27671L79.86 2.32329ZM90.6723 17.1553L99.7803 2.32329L98.076 1.27671L88.968 16.1087L90.6723 17.1553ZM98.9282 2.8H100.836V0.799999H98.9282V2.8ZM99.9841 1.27652L89.8321 17.8005L91.5362 18.8475L101.688 2.32347L99.9841 1.27652ZM133.827 14.004L133.51 13.0553L129.843 14.2777L133.643 14.987L133.827 14.004ZM137.931 16.128L137.175 16.783L137.183 16.7924L137.931 16.128ZM118.851 27H117.851V28H118.851V27ZM118.851 1.8V0.799999H117.851V1.8H118.851ZM135.735 3.492L135.137 4.29352L135.144 4.29883L135.151 4.30401L135.735 3.492ZM136.887 11.88L136.098 11.2647L136.093 11.2708L136.089 11.2769L136.887 11.88ZM120.687 3.384V2.384H119.687V3.384H120.687ZM120.687 13.428H119.687V14.428H120.687V13.428ZM134.367 12.168L134.948 12.9817L134.951 12.9795L134.367 12.168ZM134.367 4.68L133.774 5.48588L133.784 5.49266L133.793 5.49923L134.367 4.68ZM135.627 24.156L136.185 24.9856L136.188 24.9832L135.627 24.156ZM135.627 16.272L135.068 17.1016L135.075 17.1065L135.627 16.272ZM120.687 15.012V14.012H119.687V15.012H120.687ZM120.687 25.416H119.687V26.416H120.687V25.416ZM133.643 14.987C135.284 15.2934 136.424 15.917 137.175 16.7829L138.686 15.4731C137.565 14.1791 135.969 13.3866 134.01 13.021L133.643 14.987ZM137.183 16.7924C137.95 17.6548 138.371 18.8064 138.371 20.34H140.371C140.371 18.4176 139.831 16.7612 138.678 15.4636L137.183 16.7924ZM138.371 20.34C138.371 22.1959 137.713 23.5252 136.436 24.4676L137.625 26.0764C139.468 24.7148 140.371 22.7561 140.371 20.34H138.371ZM136.436 24.4676C135.123 25.4376 133.057 26 130.083 26V28C133.252 28 135.818 27.4104 137.625 26.0764L136.436 24.4676ZM130.083 26H118.851V28H130.083V26ZM119.851 27V1.8H117.851V27H119.851ZM118.851 2.8H129.363V0.799999H118.851V2.8ZM129.363 2.8C131.976 2.8 133.86 3.34084 135.137 4.29352L136.332 2.69048C134.585 1.38716 132.221 0.799999 129.363 0.799999V2.8ZM135.151 4.30401C136.399 5.20102 137.039 6.4677 137.039 8.244H139.039C139.039 5.8923 138.142 3.99097 136.318 2.67998L135.151 4.30401ZM137.039 8.244C137.039 9.49688 136.709 10.4828 136.098 11.2647L137.675 12.4953C138.601 11.3092 139.039 9.87112 139.039 8.244H137.039ZM136.089 11.2769C135.48 12.0825 134.636 12.6801 133.51 13.0553L134.143 14.9527C135.609 14.4639 136.805 13.6455 137.684 12.4831L136.089 11.2769ZM119.687 3.384V13.428H121.687V3.384H119.687ZM120.687 14.428H129.291V12.428H120.687V14.428ZM129.291 14.428C131.604 14.428 133.534 13.9915 134.948 12.9817L133.785 11.3543C132.847 12.0245 131.393 12.428 129.291 12.428V14.428ZM134.951 12.9795C136.446 11.903 137.167 10.321 137.167 8.388H135.167C135.167 9.76699 134.687 10.705 133.782 11.3565L134.951 12.9795ZM137.167 8.388C137.167 6.47307 136.441 4.91147 134.94 3.86077L133.793 5.49923C134.692 6.12853 135.167 7.03893 135.167 8.388H137.167ZM134.959 3.87412C133.543 2.83418 131.608 2.384 129.291 2.384V4.384C131.389 4.384 132.838 4.79782 133.774 5.48588L134.959 3.87412ZM129.291 2.384H120.687V4.384H129.291V2.384ZM130.083 26.416C132.616 26.416 134.698 25.9865 136.185 24.9856L135.068 23.3264C134.059 24.0055 132.445 24.416 130.083 24.416V26.416ZM136.188 24.9832C137.78 23.902 138.535 22.2438 138.535 20.196H136.535C136.535 21.7002 136.017 22.682 135.065 23.3288L136.188 24.9832ZM138.535 20.196C138.535 18.1485 137.78 16.4955 136.178 15.4375L135.075 17.1065C136.017 17.7285 136.535 18.6915 136.535 20.196H138.535ZM136.185 15.4424C134.698 14.4415 132.616 14.012 130.083 14.012V16.012C132.445 16.012 134.059 16.4225 135.068 17.1016L136.185 15.4424ZM130.083 14.012H120.687V16.012H130.083V14.012ZM119.687 15.012V25.416H121.687V15.012H119.687ZM120.687 26.416H130.083V24.416H120.687V26.416ZM167.209 18.324L166.357 17.8005L166.209 18.0414V18.324H167.209ZM167.209 27V28H168.209V27H167.209ZM165.373 27H164.373V28H165.373V27ZM165.373 18.324H166.373V18.0414L166.226 17.8005L165.373 18.324ZM155.221 1.8V0.799999H153.433L154.369 2.32347L155.221 1.8ZM157.237 1.8L158.09 1.27671L157.797 0.799999H157.237V1.8ZM166.345 16.632L165.493 17.1553L166.345 18.543L167.198 17.1553L166.345 16.632ZM175.453 1.8V0.799999H174.894L174.601 1.27671L175.453 1.8ZM177.361 1.8L178.214 2.32347L179.15 0.799999H177.361V1.8ZM166.209 18.324V27H168.209V18.324H166.209ZM167.209 26H165.373V28H167.209V26ZM166.373 27V18.324H164.373V27H166.373ZM166.226 17.8005L156.074 1.27652L154.369 2.32347L164.521 18.8475L166.226 17.8005ZM155.221 2.8H157.237V0.799999H155.221V2.8ZM156.385 2.32329L165.493 17.1553L167.198 16.1087L158.09 1.27671L156.385 2.32329ZM167.198 17.1553L176.306 2.32329L174.601 1.27671L165.493 16.1087L167.198 17.1553ZM175.453 2.8H177.361V0.799999H175.453V2.8ZM176.509 1.27652L166.357 17.8005L168.062 18.8475L178.214 2.32347L176.509 1.27652ZM195.376 1.8V0.799999H194.376V1.8H195.376ZM212.296 3.42L211.824 4.30149L211.828 4.30379L212.296 3.42ZM217.048 7.92L216.186 8.42656L216.188 8.43129L217.048 7.92ZM217.048 20.916L217.907 21.4273L217.91 21.4225L217.048 20.916ZM212.296 25.38L211.828 24.4962L211.824 24.4985L212.296 25.38ZM195.376 27H194.376V28H195.376V27ZM211.36 23.976L211.817 24.8656L211.826 24.8607L211.36 23.976ZM215.464 20.088L214.599 19.5865V19.5865L215.464 20.088ZM215.464 8.712L214.599 9.21353V9.21353L215.464 8.712ZM211.36 4.86L210.894 5.74471L210.903 5.74957L211.36 4.86ZM197.212 3.456V2.456H196.212V3.456H197.212ZM197.212 25.344H196.212V26.344H197.212V25.344ZM195.376 2.8H205.348V0.799999H195.376V2.8ZM205.348 2.8C207.823 2.8 209.973 3.30985 211.824 4.30148L212.768 2.53852C210.587 1.37015 208.105 0.799999 205.348 0.799999V2.8ZM211.828 4.30379C213.71 5.30036 215.155 6.67245 216.186 8.42655L217.91 7.41345C216.685 5.32755 214.961 3.69964 212.764 2.53621L211.828 4.30379ZM216.188 8.43129C217.215 10.1576 217.74 12.1377 217.74 14.4H219.74C219.74 11.8143 219.136 9.47439 217.907 7.40871L216.188 8.43129ZM217.74 14.4C217.74 16.6622 217.215 18.6565 216.186 20.4094L217.91 21.4225C219.136 19.3355 219.74 16.9858 219.74 14.4H217.74ZM216.188 20.4047C215.159 22.1355 213.714 23.4979 211.828 24.4962L212.764 26.2638C214.958 25.1021 216.681 23.4885 217.907 21.4273L216.188 20.4047ZM211.824 24.4985C209.973 25.4902 207.823 26 205.348 26V28C208.105 28 210.587 27.4298 212.768 26.2615L211.824 24.4985ZM205.348 26H195.376V28H205.348V26ZM196.376 27V1.8H194.376V27H196.376ZM205.204 26.344C207.664 26.344 209.878 25.8613 211.817 24.8656L210.903 23.0864C209.29 23.9147 207.399 24.344 205.204 24.344V26.344ZM211.826 24.8607C213.76 23.8415 215.27 22.4163 216.329 20.5895L214.599 19.5865C213.738 21.0717 212.512 22.2385 210.894 23.0913L211.826 24.8607ZM216.329 20.5895C217.387 18.764 217.904 16.6912 217.904 14.4H215.904C215.904 16.3808 215.46 18.1 214.599 19.5865L216.329 20.5895ZM217.904 14.4C217.904 12.1088 217.387 10.036 216.329 8.21047L214.599 9.21353C215.46 10.7 215.904 12.4192 215.904 14.4H217.904ZM216.329 8.21047C215.269 6.38132 213.755 4.96601 211.817 3.97043L210.903 5.74957C212.516 6.57798 213.739 7.73068 214.599 9.21353L216.329 8.21047ZM211.826 3.97534C209.885 2.95231 207.668 2.456 205.204 2.456V4.456C207.395 4.456 209.283 4.89568 210.894 5.74466L211.826 3.97534ZM205.204 2.456H197.212V4.456H205.204V2.456ZM196.212 3.456V25.344H198.212V3.456H196.212ZM197.212 26.344H205.204V24.344H197.212V26.344ZM254.394 19.908L255.304 19.4925L255.037 18.908H254.394V19.908ZM239.778 19.908V18.908H239.133L238.867 19.4963L239.778 19.908ZM236.574 27V28H237.22L237.486 27.4117L236.574 27ZM234.594 27L233.686 26.5821L233.034 28H234.594V27ZM246.186 1.8V0.799999H245.546L245.278 1.38209L246.186 1.8ZM248.022 1.8L248.931 1.38209L248.663 0.799999H248.022V1.8ZM259.614 27V28H261.175L260.523 26.5821L259.614 27ZM257.634 27L256.725 27.4155L256.992 28H257.634V27ZM253.71 18.36V19.36H255.265L254.621 17.9455L253.71 18.36ZM247.086 3.816L247.997 3.40152L247.084 1.3979L246.176 3.40339L247.086 3.816ZM240.498 18.36L239.588 17.9474L238.948 19.36H240.498V18.36ZM254.394 18.908H239.778V20.908H254.394V18.908ZM238.867 19.4963L235.663 26.5883L237.486 27.4117L240.69 20.3197L238.867 19.4963ZM236.574 26H234.594V28H236.574V26ZM235.503 27.4179L247.095 2.2179L245.278 1.38209L233.686 26.5821L235.503 27.4179ZM246.186 2.8H248.022V0.799999H246.186V2.8ZM247.114 2.2179L258.706 27.4179L260.523 26.5821L248.931 1.38209L247.114 2.2179ZM259.614 26H257.634V28H259.614V26ZM258.544 26.5845L255.304 19.4925L253.485 20.3235L256.725 27.4155L258.544 26.5845ZM254.621 17.9455L247.997 3.40152L246.176 4.23048L252.8 18.7745L254.621 17.9455ZM246.176 3.40339L239.588 17.9474L241.409 18.7726L247.997 4.22861L246.176 3.40339ZM240.498 19.36H253.71V17.36H240.498V19.36ZM284.529 18.324L283.677 17.8005L283.529 18.0414V18.324H284.529ZM284.529 27V28H285.529V27H284.529ZM282.693 27H281.693V28H282.693V27ZM282.693 18.324H283.693V18.0414L283.545 17.8005L282.693 18.324ZM272.541 1.8V0.799999H270.753L271.689 2.32347L272.541 1.8ZM274.557 1.8L275.409 1.27671L275.116 0.799999H274.557V1.8ZM283.665 16.632L282.813 17.1553L283.665 18.543L284.517 17.1553L283.665 16.632ZM292.773 1.8V0.799999H292.213L291.921 1.27671L292.773 1.8ZM294.681 1.8L295.533 2.32347L296.469 0.799999H294.681V1.8ZM283.529 18.324V27H285.529V18.324H283.529ZM284.529 26H282.693V28H284.529V26ZM283.693 27V18.324H281.693V27H283.693ZM283.545 17.8005L273.393 1.27652L271.689 2.32347L281.841 18.8475L283.545 17.8005ZM272.541 2.8H274.557V0.799999H272.541V2.8ZM273.705 2.32329L282.813 17.1553L284.517 16.1087L275.409 1.27671L273.705 2.32329ZM284.517 17.1553L293.625 2.32329L291.921 1.27671L282.813 16.1087L284.517 17.1553ZM292.773 2.8H294.681V0.799999H292.773V2.8ZM293.829 1.27652L283.677 17.8005L285.381 18.8475L295.533 2.32347L293.829 1.27652Z" fill="#3C3C3C"/>
</svg>
